Coordinates
version=1
nRows=29
nColumns=24
inDegrees=yes

Units are S.I. units (second, meters, Newtons, ...)
Angles are in degrees.

endheader
time	pelvis_tilt	pelvis_list	pelvis_rotation	pelvis_tx	pelvis_ty	pelvis_tz	hip_flexion_r	hip_adduction_r	hip_rotation_r	knee_angle_r	ankle_angle_r	subtalar_angle_r	mtp_angle_r	hip_flexion_l	hip_adduction_l	hip_rotation_l	knee_angle_l	ankle_angle_l	subtalar_angle_l	mtp_angle_l	lumbar_extension	lumbar_bending	lumbar_rotation
      4.70000000	     13.99585920	      7.01139728	     -2.89879057	      0.66335503	      0.75828692	     -0.26174596	      8.56296789	    -10.87009484	      1.23695951	    -62.10124151	     16.24173302	     -7.24653847	      0.00000000	     -6.24074083	     14.49822994	      0.57697130	    -13.53646686	     20.88049029	     -3.59615294	      0.00000000	    -34.72911603	     -3.23244375	      1.66797180
      4.70500000	     13.95889893	      7.14541761	     -2.72985244	      0.67076721	      0.75852205	     -0.26229292	      9.42376452	    -10.87654179	      1.41418387	    -61.00273882	     16.84891190	     -6.99301264	      0.00000000	     -7.19235718	     14.67694620	      1.01551363	    -12.87881197	     21.08167318	     -3.51072425	      0.00000000	    -34.63620124	     -3.21546069	      1.15462727
      4.71000000	     13.92315802	      7.28178643	     -2.53103898	      0.67817694	      0.75865807	     -0.26284277	     10.23699970	    -10.89888672	      1.54497574	    -59.80000746	     17.38893228	     -6.69009587	      0.00000000	     -8.14607995	     14.83908218	      1.44277290	    -12.22937459	     21.29176871	     -3.36280864	      0.00000000	    -34.54901933	     -3.19997397	      0.61800393
      4.71500000	     13.89490786	      7.42123711	     -2.30195970	      0.68558597	      0.75870496	     -0.26340741	     10.99223386	    -10.93817086	      1.62981173	    -58.49326537	     17.85413968	     -6.36958865	      0.00000000	     -9.10496627	     14.98714489	      1.85339741	    -11.59857485	     21.52048997	     -3.16239066	      0.00000000	    -34.47502742	     -3.17694332	      0.05156979
      4.72000000	     13.85454614	      7.56510129	     -2.05149327	      0.69299981	      0.75863578	     -0.26394362	     11.71363679	    -10.98602166	      1.67868458	    -57.08955526	     18.26162666	     -6.13625384	      0.00000000	    -10.04175653	     15.11813039	      2.20419984	    -10.99427351	     21.78360834	     -2.89842935	      0.00000000	    -34.39188671	     -3.16314635	     -0.53432245
      4.72500000	     13.82282666	      7.70807778	     -1.76581061	      0.70040900	      0.75848723	     -0.26448415	     12.37153411	    -11.04743059	      1.67381726	    -55.58905540	     18.58467845	     -5.91693083	      0.00000000	    -10.98473579	     15.22655742	      2.54133267	    -10.41119328	     22.06955845	     -2.56633540	      0.00000000	    -34.32573653	     -3.14108351	     -1.14036356
      4.73000000	     13.79817990	      7.85225022	     -1.45316477	      0.70782387	      0.75825661	     -0.26504294	     12.96719623	    -11.12458592	      1.62388327	    -53.99417531	     18.83173736	     -5.75862983	      0.00000000	    -11.92813975	     15.31884794	      2.85205473	     -9.85736573	     22.38195277	     -2.17522258	      0.00000000	    -34.27293434	     -3.10913767	     -1.75908335
      4.73500000	     13.78936321	      7.99114448	     -1.10931700	      0.71522585	      0.75795724	     -0.26558898	     13.48943283	    -11.21028421	      1.51462297	    -52.30832353	     19.00494868	     -5.65778863	      0.00000000	    -12.87876739	     15.38156801	      3.13914859	     -9.33602907	     22.72985958	     -1.71872782	      0.00000000	    -34.24653224	     -3.06685556	     -2.39794216
      4.74000000	     13.81622680	      8.10815223	     -0.74794539	      0.72263186	      0.75762347	     -0.26611330	     13.90949381	    -11.28032803	      1.36191002	    -50.52395429	     19.08768475	     -5.59779563	      0.00000000	    -13.85946032	     15.39925788	      3.38585170	     -8.84384320	     23.13467247	     -1.17206582	      0.00000000	    -34.26876328	     -3.00347406	     -3.02212412
      4.74500000	     13.80123664	      8.26383804	     -0.34599176	      0.73003291	      0.75715931	     -0.26664771	     14.32703406	    -11.40892836	      1.14225551	    -48.67689673	     19.16634007	     -5.66496160	      0.00000000	    -14.77659548	     15.43556286	      3.60990282	     -8.39944028	     23.51697777	     -0.64093934	      0.00000000	    -34.25002137	     -2.96642475	     -3.69809229
      4.75000000	     13.81305177	      8.39693727	      0.08803117	      0.73743721	      0.75666373	     -0.26720523	     14.64394265	    -11.53037299	      0.85588694	    -46.73713776	     19.18141390	     -5.73891111	      0.00000000	    -15.70896587	     15.42683380	      3.83725057	     -8.00039574	     23.94616423	     -0.05264031	      0.00000000	    -34.26715034	     -2.88909563	     -4.36146725
      4.75500000	     13.89886190	      8.49036542	      0.50977688	      0.74483291	      0.75618264	     -0.26767180	     14.81907105	    -11.60209321	      0.54826441	    -44.71026976	     19.12317834	     -5.78319914	      0.00000000	    -16.70716417	     15.35176289	      4.00633243	     -7.62566497	     24.45417072	      0.66186592	      0.00000000	    -34.37690012	     -2.79368279	     -4.97182544
      4.76000000	     13.90476891	      8.64096291	      0.99925103	      0.75223124	      0.75555712	     -0.26816593	     15.02493962	    -11.76025378	      0.13199481	    -42.64193815	     19.10827396	     -5.89866724	      0.00000000	    -17.59271152	     15.31034256	      4.20016024	     -7.32503160	     24.90464014	      1.27227837	      0.00000000	    -34.40365314	     -2.73486353	     -5.66793810
      4.76500000	     13.95678626	      8.75891741	      1.51563048	      0.75961832	      0.75493789	     -0.26867204	     15.10701650	    -11.89309137	     -0.35219672	    -40.49768053	     19.06683999	     -5.93032268	      0.00000000	    -18.50912615	     15.20868715	      4.40753935	     -7.07008940	     25.41245261	      1.93669428	      0.00000000	    -34.48979605	     -2.62303371	     -6.34295245
      4.77000000	     14.03746530	      8.87305482	      2.04162093	      0.76701198	      0.75430073	     -0.26913081	     15.09522078	    -12.01979731	     -0.88478732	    -38.29868298	     19.03262429	     -5.87263075	      0.00000000	    -19.43370330	     15.07774772	      4.59509152	     -6.86318461	     25.94241630	      2.63244679	      0.00000000	    -34.61215091	     -2.50880114	     -7.00081008
      4.77500000	     14.12498006	      8.98511364	      2.58886340	      0.77440850	      0.75363243	     -0.26955621	     15.01423979	    -12.14335637	     -1.47737952	    -36.05933377	     19.02280029	     -5.70178231	      0.00000000	    -20.33850094	     14.91803002	      4.78053330	     -6.71493058	     26.48603438	      3.33544590	      0.00000000	    -34.74758763	     -2.39117408	     -7.65519904
      4.78000000	     14.31694070	      9.07891814	      3.09451488	      0.78187155	      0.75302071	     -0.26992131	     14.76178806	    -12.23691396	     -2.12031843	    -33.77919017	     19.11263577	     -5.31170833	      0.00000000	    -21.35806406	     14.71854881	      4.85363314	     -6.55156195	     27.01820957	      4.17379685	      0.00000000	    -34.98843871	     -2.26663063	     -8.21413954
      4.78500000	     14.40343654	      9.19729466	      3.69457293	      0.78928255	      0.75229510	     -0.27029872	     14.56469619	    -12.35989604	     -2.84190771	    -31.50244739	     19.19290814	     -4.82680913	      0.00000000	    -22.20432109	     14.50810476	      5.04913941	     -6.52602454	     27.57425301	      4.87944919	      0.00000000	    -35.13046595	     -2.13910218	     -8.87416534
      4.79000000	     14.44080494	      9.31938185	      4.35162736	      0.79663322	      0.75151969	     -0.27065686	     14.36700555	    -12.47977746	     -3.61576925	    -29.22908990	     19.24143567	     -4.21350025	      0.00000000	    -22.93196384	     14.27199408	      5.32650291	     -6.63819156	     28.17109779	      5.49600061	      0.00000000	    -35.23760175	     -2.00382847	     -9.55404988
      4.79500000	     14.52599671	      9.42702574	      4.99710677	      0.80406909	      0.75077457	     -0.27095691	     14.06481633	    -12.56978332	     -4.44878016	    -26.96838714	     19.40402311	     -3.31865485	      0.00000000	    -23.71076077	     13.99398068	      5.56612658	     -6.74652371	     28.73776646	      6.15824752	      0.00000000	    -35.38277536	     -1.86176112	    -10.18941817
      4.80000000	     14.65276788	      9.54440968	      5.61370510	      0.81155236	      0.75004451	     -0.27121585	     13.68947935	    -12.65019496	     -5.29362292	    -24.75992870	     19.65586949	     -2.14739772	      0.00000000	    -24.52106134	     13.70986148	      5.74687863	     -6.87319792	     29.28429560	      6.85776282	      0.00000000	    -35.56700605	     -1.73050849	    -10.81398088
      4.80500000	     14.74501695	      9.62240848	      6.23046637	      0.81907915	      0.74928549	     -0.27141185	     13.31659408	    -12.66028090	     -6.13272738	    -22.59761308	     19.94994205	     -0.79395045	      0.00000000	    -25.24037894	     13.37458650	      5.92241817	     -7.09474714	     29.84469152	      7.52426925	      0.00000000	    -35.70543256	     -1.57941403	    -11.35480667
      4.81000000	     14.78491820	      9.73362716	      6.90449339	      0.82655647	      0.74850951	     -0.27158280	     12.96932771	    -12.69451315	     -6.98690579	    -20.52210467	     20.17449921	      0.63131535	      0.00000000	    -25.84613830	     13.03844587	      6.15549963	     -7.43723378	     30.40581199	      8.17098861	      0.00000000	    -35.80528449	     -1.44805842	    -11.98354050
      4.81500000	     14.78835140	      9.81187612	      7.57539877	      0.83408669	      0.74772600	     -0.27170957	     12.63661058	    -12.67090802	     -7.82019424	    -18.52564224	     20.42008974	      2.17476370	      0.00000000	    -26.35966724	     12.66404062	      6.39421645	     -7.87481525	     30.92544958	      8.79662753	      0.00000000	    -35.85651977	     -1.30319370	    -12.51156674
      4.82000000	     14.83905844	      9.89192577	      8.16881791	      0.84165429	      0.74696743	     -0.27176095	     12.27441992	    -12.62230485	     -8.59677041	    -16.68121492	     20.69647170	      3.99337922	      0.00000000	    -26.88760456	     12.30492755	      6.54127400	     -8.36200322	     31.49736097	      9.38487131	      0.00000000	    -35.95255198	     -1.18579769	    -13.00659348
      4.82500000	     14.82910229	      9.95450968	      8.78294626	      0.84925671	      0.74620707	     -0.27177532	     11.95724037	    -12.53788357	     -9.32052278	    -14.94969238	     20.93659667	      5.76758576	      0.00000000	    -27.29141325	     11.91780991	      6.71495174	     -8.96071483	     32.00928280	      9.96305151	      0.00000000	    -35.97834128	     -1.06525932	    -13.45796310
      4.83000000	     14.79270131	      9.99953473	      9.38680548	      0.85689995	      0.74546784	     -0.27175984	     11.66468062	    -12.42111957	    -10.00082201	    -13.36141720	     21.15659724	      7.56025937	      0.00000000	    -27.60879111	     11.51574927	      6.88680815	     -9.66504312	     32.48965975	     10.53106830	      0.00000000	    -35.97095835	     -0.94225318	    -13.87022395
      4.83500000	     14.73331642	     10.02431609	      9.96203778	      0.86459663	      0.74474638	     -0.27170600	     11.40566091	    -12.26886996	    -10.60341490	    -11.93563144	     21.35227794	      9.33517969	      0.00000000	    -27.84808563	     11.10577693	      7.03455307	    -10.45966402	     32.92986213	     11.06805686	      0.00000000	    -35.92629459	     -0.82201781	    -14.22905612
      4.84000000	     14.65026602	     10.02953098	     10.51519535	      0.87234522	      0.74405500	     -0.27162291	     11.17832746	    -12.08563450	    -11.12888686	    -10.67630695	     21.51741085	     11.03852595	      0.00000000	    -28.00183985	     10.68869862	      7.17165058	    -11.36235313	     33.32521827	     11.58291980	      0.00000000	    -35.84446693	     -0.70346495	    -14.53833069
